<?xml version="1.0" encoding="UTF-8"?>
<svg id="Layer_1" data-name="Layer 1" xmlns="http://www.w3.org/2000/svg" viewBox="0 0 225 235">
  <defs>
    <style>
      .cls-1 {
        fill: #d81629;
      }

      .cls-2 {
        fill: #fff;
      }
    </style>
  </defs>
  <path class="cls-1" d="M0,0h225v235H0V0ZM87,210.5v-39l-1.5-1.5h-27.5l-3.97,13.51c.2,2.46,9.76,1.23,11.97,1.48l-.44,12.07c-25.71,8.27-34.38-27.2-18.28-39.23,4.69-3.5,10.96-3.82,13.16-3.87,7.03-.14,12.23,2.59,14.41,3.9,7.25-6.11,10.82-12.65,8.96-16.7-1.17-2.55-4.54-3.04-9.82-4.67-36.41-11.27-66.08,19.68-53.76,55.76,9.02,26.4,45.38,33.06,66.76,18.24ZM154,198.5v17l2.5,1.5c16.21,1.26,43.88,3.46,49.82-16.19,3.76-12.43-.4-20.95-10.99-27.64-5.16-3.26-20.23-7.04-20.25-13.67s10.79-6.86,15.41-6.48c2.2.18,12.51,3.59,12.51.48v-15c-19.04-8.46-53.42-2.15-49.91,24.92.97,7.5,5.52,11.58,11.61,15.38s26.76,8.41,18.32,17.72c-5.65,6.23-20.16.83-26.97.89-1.16,0-1.31.07-2.05,1.09ZM130,156c0-.77,13.73,1.53,15-1.5v-17c-.27-.44-.56-.74-.88-.95-1.04-.68-2.21-.62-2.57-.6-1.76.1-10.84.03-23.41-.08-7.51.11-15.02.22-22.53.33l-5.21,17.73c.37.69.73,1.38,1.1,2.07h16.5v61c3.41-.32,22-.12,22-3.5v-57.5Z"/>
  <path class="cls-2" d="M87,210.5c-21.37,14.82-57.74,8.16-66.76-18.24-12.32-36.08,17.35-67.02,53.76-55.76,1.69.52,9.28,3.75,9.82,4.67,1.92,3.29-8.05,12.86-8.96,16.7-4.91-.6-9.16-3.81-14.41-3.9-32.11-.55-25.89,53.06,5.12,43.09l.44-12.07c-2.21-.26-11.77.98-11.97-1.48l3.97-13.51h27.5l1.5,1.5v39Z"/>
  <path class="cls-2" d="M154,198.5c.74-1.02.88-1.08,2.05-1.09,6.81-.05,21.32,5.35,26.97-.89,8.44-9.32-12.44-14.04-18.32-17.72s-10.64-7.88-11.61-15.38c-3.51-27.07,30.87-33.37,49.91-24.92v15c0,3.11-10.32-.3-12.51-.48-4.62-.37-15.43-.19-15.41,6.48s15.08,10.41,20.25,13.67c10.6,6.69,14.75,15.21,10.99,27.64-5.94,19.65-33.61,17.45-49.82,16.19l-2.5-1.5v-17Z"/>
  <path class="cls-2" d="M130,156v57.5c0,3.38-18.59,3.18-22,3.5v-61h-16.5l-1.1-2.07,5.21-17.73c7.69-.12,15.38-.24,23.07-.36,12.26.12,21.12.21,22.87.11.35-.02,1.52-.08,2.57.6.32.21.61.51.88.95v17c-1.27,3.03-15,.73-15,1.5Z"/>
</svg>